<?xml version="1.0" standalone="yes"?>
<svg xmlns="http://www.w3.org/2000/svg" width="100" height="100">
<path style="fill:#030201; stroke:none;" d="M0 0L0 100L100 100L100 0L0 0z"/>
<path style="fill:#be5e16; stroke:none;" d="M79 44C84.7325 35.3511 83.3806 23.7936 73.9961 18.1443C61.3446 10.5283 41.4082 7.98659 27 5.56482C20.8142 4.5251 11.2943 0.860046 5.34414 4.08951C-2.95021 8.59125 4.98475 30.8473 6.25 38C8.62623 51.4334 11.9289 76.6137 26 82.3657C31.9506 84.7983 38.6792 79.6991 43.24 81.8935C51.5818 85.9073 52.4021 98.0929 64 97.3897C71.8448 96.914 76.8498 90.1502 82 85C90.551 76.449 104.746 62.8916 91.4406 50.8426C88.3213 48.0178 82.796 45.8779 79 44z"/>
<path style="fill:#d71f19; stroke:none;" d="M15 3L16 4L15 3M22 4L23 5L22 4z"/>
<path style="fill:#cba81a; stroke:none;" d="M4 10L12 9L12 10C6.66018 12.1653 5.70752 15.5544 5 21L6 21L6 18L7 18C6.68147 22.9949 7.3306 45.0746 13 46C10.7082 56.5722 19.504 86.0804 34 77L34 76L25 77L24 67C31.1072 74.7225 33.0501 72.9906 43 72L43 73L35 75L35 76C48.6801 74.9822 50.8364 91.8227 63 95C64.3028 86.8312 73.495 91.0807 73 82L76 83L76 80L79 81L87 76C85.151 70.4529 92.4281 59.857 93 60L88 52L88 53L91 59L86 57C89.9103 69.6483 69.4123 90.9723 59 77L58 77L58 84C60.6489 83.4702 61.6069 83.5722 61 86L64 89C55.931 85.6174 49.4002 79.5554 45 72L48 72L52 78L57 77C54.4128 72.8642 51.2739 67.8465 46 67.1628C40.6712 66.472 36.1087 70.0468 31.0154 66.9869C20.0351 60.3903 16.6566 37.6348 14.615 26C13.5757 20.0773 13.0309 14.0106 19 11C13.3307 21.6233 20.8238 38.5039 24.5054 49C25.9445 53.1029 27.4498 58.189 31.213 60.7716C36.8496 64.64 42.4664 59.7399 47.8302 62.2693C54.2727 65.3074 57.1688 75.1616 64.9992 75.7971C72.0816 76.3718 83.8962 64.7118 84.5471 58C84.8792 54.5748 82.5757 51.3182 82 48C75.8596 45.6893 72.2298 44.0756 72 37L71 37L71 42L70 42L70 26L71 26L72 36L73 36L80 34C77.9646 14.1287 41.757 11.7956 26 7.89892C19.1803 6.2124 8.26105 2.90672 4 10z"/>
<path style="fill:#ffe3aa; stroke:none;" d="M13 7L12 9L13 7z"/>
<path style="fill:#d71f19; stroke:none;" d="M41 8L42 9L41 8z"/>
<path style="fill:#ffe3aa; stroke:none;" d="M4 10L5 18L6 18L12 10L4 10z"/>
<path style="fill:#d71f19; stroke:none;" d="M32 9L32 10L52 15C47.449 10.7179 38.1413 9.5355 32 9M45 9L46 10L45 9z"/>
<path style="fill:#cba81a; stroke:none;" d="M4 11L4 14L5 14L4 11z"/>
<path style="fill:#be5e16; stroke:none;" d="M86 57L85 57C82.5776 63.1735 71.086 78.6877 63 74.9537C56.9295 72.1504 54.0559 64.0977 47.8302 61.7816C42.4901 59.795 37.5566 64.259 32.1049 60.7708C27.8144 58.0256 26.1076 52.5677 24.5054 48C20.6749 37.0793 14.2193 22.2825 19 11C9.17059 13.9839 15.4567 32.8439 17.4252 40C19.8122 48.6776 23.0987 65.4716 33.0008 68.3326C38.0693 69.797 43.086 65.6083 47.9961 68.0316C54.6186 71.3 57.4691 80.7049 65.0031 82.5509C76.422 85.3489 90.1653 66.8455 86 57M38 11L39 12L38 11z"/>
<path style="fill:#ffe3aa; stroke:none;" d="M21.3179 12.7423C15.3166 15.8019 21.2365 32.2607 22.5795 37C24.4602 43.6369 26.8876 57.3585 34.0185 60.1026C39.5231 62.2209 44.8058 57.8039 50 61.4483C55.4349 65.2616 61.024 76.8953 69.0008 72.9722C71.234 71.8739 73.0113 69.9706 74.8302 68.3202C76.5061 66.7997 78.3524 65.3667 79.8611 63.6752C88.5454 53.9385 71.9372 48.3399 68.1829 40.9606C65.4819 35.6519 70.7402 30.314 67.2569 25.0548C64.8848 21.4731 60.8391 20.3114 57 18.9969C48.0274 15.9247 30.7604 7.92825 21.3179 12.7423z"/>
<path style="fill:#be5e16; stroke:none;" d="M40.6667 12.3333L41.3333 12.6667L40.6667 12.3333M45 13L46 14L45 13M48 14L49 15L48 14z"/>
<path style="fill:#d71f19; stroke:none;" d="M63 14L64 15L63 14M52 15L53 16L52 15M2 18L3 19L2 18z"/>
<path style="fill:#ffe3aa; stroke:none;" d="M6 18L6 23L7 23L6 18z"/>
<path style="fill:#d71f19; stroke:none;" d="M3 21L4 22L3 21z"/>
<path style="fill:#ffe3aa; stroke:none;" d="M7 23L11 38L12 38L14 32L14 31L10 23L7 23z"/>
<path style="fill:#be5e16; stroke:none;" d="M69 24L70 25L69 24z"/>
<path style="fill:#d71f19; stroke:none;" d="M80 24L81 25L80 24M81 26L82 27L81 26M72 37L75 46C75.9133 42.0097 74.9403 39.8041 72 37z"/>
<path style="fill:#ffe3aa; stroke:none;" d="M12 39L13 46L14 46L12 39z"/>
<path style="fill:#be5e16; stroke:none;" d="M72.3333 42.6667L72.6667 43.3333L72.3333 42.6667z"/>
<path style="fill:#d71f19; stroke:none;" d="M7 44L8 45L7 44z"/>
<path style="fill:#be5e16; stroke:none;" d="M73 44L74 45L73 44z"/>
<path style="fill:#ffe3aa; stroke:none;" d="M12.3333 46.6667L12.6667 47.3333L12.3333 46.6667z"/>
<path style="fill:#d71f19; stroke:none;" d="M84 47L85 48L84 47M86 48L87 49L86 48z"/>
<path style="fill:#ffe3aa; stroke:none;" d="M81 49C83.1255 54.1056 85.7661 57.1272 91 59C89.6485 52.9488 86.3318 51.5384 81 49z"/>
<path style="fill:#cba81a; stroke:none;" d="M83.6667 50.3333L84.3333 50.6667L83.6667 50.3333z"/>
<path style="fill:#ffe3aa; stroke:none;" d="M13 51L14 52L13 51z"/>
<path style="fill:#cba81a; stroke:none;" d="M86 51L87 52L86 51z"/>
<path style="fill:#ffe3aa; stroke:none;" d="M19 52L20 53L19 52M15 53L15 54L18 55L15 53M18 57L19 58L18 57M19 61L21 63L19 61M24 67L25 77L43 73L43 72C32.5088 72.5373 32.3461 73.0239 24 67z"/>
<path style="fill:#d71f19; stroke:none;" d="M14 68L15 69L14 68z"/>
<path style="fill:#ffe3aa; stroke:none;" d="M86 69L86 75L87 75L86 69M44 71L45 72L44 71z"/>
<path style="fill:#d71f19; stroke:none;" d="M45 72L48 75L45 72z"/>
<path style="fill:#ffe3aa; stroke:none;" d="M47 72L47 77L52 77L52 76L47 72M51 72L50 75L51 75L51 72z"/>
<path style="fill:#be5e16; stroke:none;" d="M45 73L46 74L45 73M47 73L48 74L47 73M46 74L47 75L46 74M47 75L48 76L47 75z"/>
<path style="fill:#ffe3aa; stroke:none;" d="M85 76L86 77L85 76z"/>
<path style="fill:#d71f19; stroke:none;" d="M49 77C52.3457 81.7465 56.1581 85.8213 62 87C58.1538 82.0092 55.5125 77.9839 49 77z"/>
<path style="fill:#ffe3aa; stroke:none;" d="M53 77L53 78L57 78L58 83L59 83L58 77L53 77M84 77L85 78L84 77z"/>
<path style="fill:#be5e16; stroke:none;" d="M49 78L50 79L49 78M55 78L56 79L55 78z"/>
<path style="fill:#cba81a; stroke:none;" d="M56 78L57 79L56 78z"/>
<path style="fill:#ffe3aa; stroke:none;" d="M82.6667 78.3333L83.3333 78.6667L82.6667 78.3333z"/>
<path style="fill:#be5e16; stroke:none;" d="M50 79L51 80L50 79z"/>
<path style="fill:#ffe3aa; stroke:none;" d="M79 79L79 80L82 80L79 79z"/>
<path style="fill:#be5e16; stroke:none;" d="M51 80L52 81L51 80z"/>
<path style="fill:#ffe3aa; stroke:none;" d="M76.6667 80.3333L77.3333 80.6667L76.6667 80.3333z"/>
<path style="fill:#be5e16; stroke:none;" d="M52 81L53 82L52 81z"/>
<path style="fill:#ffe3aa; stroke:none;" d="M75 81L76 82L75 81z"/>
<path style="fill:#d71f19; stroke:none;" d="M37 82L38 83L37 82z"/>
<path style="fill:#be5e16; stroke:none;" d="M53 82L54 83L53 82M57 82L58 83L57 82z"/>
<path style="fill:#ffe3aa; stroke:none;" d="M73 82L73 86L74 86L75 82L73 82z"/>
<path style="fill:#be5e16; stroke:none;" d="M54 83L55 84L54 83z"/>
<path style="fill:#ffe3aa; stroke:none;" d="M59 83L60 84L59 83z"/>
<path style="fill:#d71f19; stroke:none;" d="M46 84L47 85L46 84z"/>
<path style="fill:#be5e16; stroke:none;" d="M55 84L56 85L55 84z"/>
<path style="fill:#ffe3aa; stroke:none;" d="M60.6667 84.3333L61.3333 84.6667L60.6667 84.3333z"/>
<path style="fill:#cba81a; stroke:none;" d="M74 84L75 85L74 84z"/>
<path style="fill:#be5e16; stroke:none;" d="M56 85L57 86L56 85z"/>
<path style="fill:#ffe3aa; stroke:none;" d="M62 85L64 89L62 85z"/>
<path style="fill:#be5e16; stroke:none;" d="M58 86L59 87L58 86z"/>
<path style="fill:#ffe3aa; stroke:none;" d="M72 86L71 88L72 86z"/>
<path style="fill:#be5e16; stroke:none;" d="M60.6667 87.3333L61.3333 87.6667L60.6667 87.3333z"/>
<path style="fill:#ffe3aa; stroke:none;" d="M70 88L71 89L70 88M64 89L64 90L70 90L64 89z"/>
<path style="fill:#cba81a; stroke:none;" d="M65 90L65 91L69 91L65 90z"/>
<path style="fill:#d71f19; stroke:none;" d="M53 93L54 94L53 93z"/>
</svg>
